HIERARCHY
ROOT Hips
{
	OFFSET -0.179506 -22.333345 2.821913
	CHANNELS 6 Xposition Yposition Zposition Zrotation Yrotation Xrotation 
	JOINT LeftUpLeg
	{
		OFFSET 6.951974 -9.140623 -0.681533
		CHANNELS 3 Zrotation Yrotation Xrotation
		JOINT LeftLeg
		{
			OFFSET 3.427654 -37.519855 -0.449580
			CHANNELS 3 Zrotation Yrotation Xrotation
			JOINT LeftFoot
			{
				OFFSET -1.359570 -39.796059 -4.369333
				CHANNELS 3 Zrotation Yrotation Xrotation
				JOINT LeftToe
				{
					OFFSET 2.635814 -5.579078 11.928840
					CHANNELS 3 Zrotation Yrotation Xrotation
					End Site
					{
						OFFSET 0.000000 0.000000 0.000000
					}
				}
			}
		}
	}
	JOINT RightUpLeg
	{
		OFFSET -6.767048 -9.052170 -0.431982
		CHANNELS 3 Zrotation Yrotation Xrotation
		JOINT RightLeg
		{
			OFFSET -3.829005 -38.256897 -0.885003
			CHANNELS 3 Zrotation Yrotation Xrotation
			JOINT RightFoot
			{
				OFFSET 1.577377 -39.841461 -4.231180
				CHANNELS 3 Zrotation Yrotation Xrotation
				JOINT RightToe
				{
					OFFSET -2.537174 -4.814398 12.334795
					CHANNELS 3 Zrotation Yrotation Xrotation
					End Site
					{
						OFFSET 0.000000 0.000000 0.000000
					}
				}
			}
		}
	}
	JOINT Spine
	{
		OFFSET -0.253288 10.896323 -2.669631
		CHANNELS 3 Zrotation Yrotation Xrotation
		JOINT Spine1
		{
			OFFSET 0.548704 13.518043 0.109247
			CHANNELS 3 Zrotation Yrotation Xrotation
			JOINT Spine2
			{
				OFFSET 0.145701 5.292222 2.542457
				CHANNELS 3 Zrotation Yrotation Xrotation
				JOINT Neck
				{
					OFFSET -0.277840 21.387037 -4.285703
					CHANNELS 3 Zrotation Yrotation Xrotation
					JOINT Head
					{
						OFFSET 0.515184 6.496960 5.134897
						CHANNELS 3 Zrotation Yrotation Xrotation
						End Site
						{
							OFFSET 0.000000 0.000000 0.000000
						}
					}
				}
				JOINT LeftShoulder
				{
					OFFSET 7.884473 12.174932 -3.408961
					CHANNELS 3 Zrotation Yrotation Xrotation
					JOINT LeftArm
					{
						OFFSET 9.097692 3.046888 -0.886815
						CHANNELS 3 Zrotation Yrotation Xrotation
						JOINT LeftForeArm
						{
							OFFSET 25.961220 -1.277207 -2.745643
							CHANNELS 3 Zrotation Yrotation Xrotation
							JOINT LeftHand
							{
								OFFSET 24.923361 0.898606 -0.117091
								CHANNELS 3 Zrotation Yrotation Xrotation
								End Site
								{
									OFFSET 0.000000 0.000000 0.000000
								}
							}
						}
					}
				}
				JOINT RightShoulder
				{
					OFFSET -8.175920 11.883285 -3.861528
					CHANNELS 3 Zrotation Yrotation Xrotation
					JOINT RightArm
					{
						OFFSET -9.601238 3.255117 -0.914307
						CHANNELS 3 Zrotation Yrotation Xrotation
						JOINT RightForeArm
						{
							OFFSET -25.374195 -1.332924 -2.140099
							CHANNELS 3 Zrotation Yrotation Xrotation
							JOINT RightHand
							{
								OFFSET -25.529810 0.777228 -0.555919
								CHANNELS 3 Zrotation Yrotation Xrotation
								End Site
								{
									OFFSET 0.000000 0.000000 0.000000
								}
							}
						}
					}
				}
			}
		}
	}
}
MOTION
Frames: 16
Frame Time: 0.033333
6.061660 136.660172 84.971985 153.202748 -2.086723 102.020622 6.554251 5.151569 14.938160 -4.343665 3.175339 18.219859 0.482542 11.858649 -22.980088 nan nan nan -10.600115 12.149747 -49.062241 5.901896 -2.312490 47.574333 -0.537836 7.652534 -21.664334 nan nan nan 2.649632 -14.971631 6.204542 10.010018 -8.199320 6.684345 1.633487 -7.756195 -2.524606 -0.857054 9.602598 18.555090 -10.276842 6.532704 9.318981 -3.038328 3.417378 -0.622196 -55.139421 -19.558115 7.510375 148.965011 -45.197118 -119.618725 -13.243696 -27.725239 -23.971041 8.788536 4.265083 -8.636919 63.396901 24.027872 24.780379 -160.091103 53.155793 -145.880874 10.328842 25.043691 -36.637700 
6.142745 136.516113 85.019958 154.531811 -2.269983 101.790219 7.093911 5.150711 14.763419 -4.335108 3.092051 18.284333 0.226490 11.737006 -22.878422 nan nan nan -10.665584 11.679614 -48.543605 5.611755 -2.704093 47.417248 -0.537645 7.452156 -21.863299 nan nan nan 2.547437 -14.625529 6.226668 10.082056 -8.036364 6.612717 1.757675 -7.762459 -2.486870 -0.594801 9.251680 18.707055 -10.276514 6.011714 9.414176 -2.433426 3.272835 -0.563119 -55.797596 -20.375807 7.648220 148.580164 -44.672656 -118.976081 -13.892850 -27.698829 -23.668689 8.280085 4.379484 -8.825715 63.188803 24.930123 24.153523 -159.137076 53.098081 -144.042988 11.699525 24.905337 -35.666578 
6.212583 136.353333 85.072617 155.975654 -2.494548 101.645102 7.526609 5.154924 14.344830 -4.159713 3.122316 18.503718 -0.140529 11.629683 -22.856534 nan nan nan -10.807984 11.092867 -48.079518 5.356550 -3.137384 47.215029 -0.490375 7.259328 -22.070982 nan nan nan 2.529014 -14.383258 5.974932 10.167374 -7.954118 6.769517 1.806402 -7.610791 -2.471725 -0.541919 8.844233 18.814770 -10.210953 5.486866 9.538022 -1.974753 2.913308 -0.437921 -56.250477 -21.306463 7.823591 148.075189 -44.117618 -118.212094 -14.302949 -27.647924 -23.217356 7.643960 4.479811 -8.846877 63.213530 25.675669 23.738072 -158.589869 52.908884 -142.491601 11.869259 24.521024 -34.694677 
6.292146 136.203735 85.135818 157.343978 -2.754957 101.426061 7.877010 5.192880 14.099870 -3.983158 3.100958 18.524122 -0.406771 11.636488 -22.798866 nan nan nan -10.916682 10.504186 -47.535667 5.143725 -3.376183 47.037442 -0.480213 7.115418 -22.275647 nan nan nan 2.482154 -14.150724 5.811350 10.148856 -7.889965 6.797303 1.861658 -7.327061 -2.329983 -0.590957 8.500222 19.018233 -10.086701 5.007308 9.470496 -1.718730 2.508164 -0.316498 -56.354122 -22.156520 7.629638 147.889351 -43.847330 -117.758708 -14.313115 -27.684530 -22.897030 7.020083 4.626959 -8.692852 62.992741 26.510620 23.113672 -158.165473 52.792362 -141.231137 11.787404 24.199036 -33.805358 
6.384432 136.082764 85.214111 158.676913 -2.985806 101.161266 8.256817 5.287696 14.000604 -3.767909 3.129286 18.336967 -0.540740 11.583225 -22.800854 nan nan nan -11.002056 9.948957 -46.942608 4.967943 -3.574210 46.827104 -0.462801 7.024814 -22.469953 nan nan nan 2.462117 -13.903364 5.753897 10.048155 -7.802326 6.673165 1.874173 -7.099590 -2.231582 -0.479784 8.110099 19.392926 -9.989112 4.464935 9.455120 -1.465828 2.260082 -0.282489 -56.419175 -22.776268 7.459644 147.939787 -43.912578 -117.435159 -13.643905 -27.831115 -23.106761 6.643868 4.929685 -8.616584 62.568587 27.239840 22.490850 -157.662330 52.802250 -140.114863 11.512554 24.079080 -33.254101 
6.459704 135.962982 85.292404 160.118842 -3.256743 100.786526 8.646137 5.437516 13.973627 -3.611190 3.068997 18.057102 -0.620921 11.597182 -22.849703 nan nan nan -11.077234 9.328498 -46.181574 4.856713 -3.663475 46.525527 -0.523964 6.748255 -22.773897 nan nan nan 2.477274 -13.690577 5.751795 9.873558 -7.831855 6.728926 1.804682 -6.898626 -2.272216 -0.369154 7.670845 19.597387 -9.715801 4.008270 9.484688 -1.405778 1.863194 -0.391505 -56.062105 -23.427439 7.251400 147.882907 -44.063221 -117.002822 -12.528911 -27.618701 -23.623350 6.539107 5.451233 -8.752655 61.940768 27.701082 21.953673 -157.083486 52.821018 -139.252547 10.962270 23.605652 -33.134408 
6.519095 135.806625 85.371857 161.631582 -3.550704 100.338159 9.004131 5.567235 13.896792 -3.557264 2.868616 17.922359 -0.762420 11.719186 -22.964091 nan nan nan -11.203966 8.706209 -45.390679 4.712945 -3.795804 46.301239 -0.428846 6.433765 -23.015065 nan nan nan 2.456553 -13.485790 5.744269 9.713713 -7.889740 7.011098 1.698291 -6.706084 -2.350557 -0.240914 7.460840 19.680665 -9.290063 3.456921 9.512353 -1.235890 1.419043 -0.762513 -56.570539 -24.609007 7.501497 147.788302 -44.509440 -116.266003 -11.127887 -27.224062 -23.773731 6.498029 5.884093 -9.039526 61.272363 28.073411 21.487647 -156.670919 52.767156 -138.618338 10.678978 22.965876 -32.815550 
6.580901 135.654236 85.451271 163.098330 -3.821376 99.995828 9.270397 5.647597 13.694201 -3.409849 2.940016 17.841987 -0.896545 11.757331 -22.911381 nan nan nan -11.396096 8.100121 -44.771250 4.498731 -4.141506 46.160382 -0.231080 6.201349 -23.080740 nan nan nan 2.457466 -13.262878 5.674622 9.563232 -7.815862 6.953804 1.618167 -6.549702 -2.253564 -0.247219 7.093727 20.054804 -8.928833 2.987668 9.521445 -1.018492 1.000014 -0.902470 -57.137374 -25.425453 7.851157 147.660574 -44.505344 -115.493556 -11.287050 -26.900833 -23.126292 6.195344 6.183780 -9.070298 60.990093 28.433267 21.050315 -156.119000 52.650568 -137.614318 11.084227 22.772869 -32.239422 
6.649696 135.524094 85.541611 164.529384 -4.089261 99.658055 9.521096 5.785401 13.514744 -3.197606 3.271874 17.716029 -1.122552 11.768701 -22.641933 nan nan nan -11.574396 7.524641 -44.104901 4.239695 -4.490358 45.954596 -0.005730 5.941366 -23.210462 nan nan nan 2.467471 -13.084370 5.711057 9.357631 -7.726312 6.523383 1.548933 -6.306626 -1.990341 -0.318233 6.651867 20.672980 -8.422235 2.508271 9.371341 -0.940442 0.613481 -0.995076 -57.196776 -25.969045 8.030864 147.423068 -44.598840 -114.775379 -11.569269 -27.157179 -22.438743 5.787306 6.491478 -8.989472 60.857349 28.680701 20.600897 -155.538868 52.622396 -136.673060 11.288637 23.038731 -31.794833 
6.737247 135.391235 85.636925 165.921352 -4.371240 99.322928 9.814452 6.008085 13.364947 -3.062223 3.715219 17.533304 -1.401084 11.670032 -22.399922 nan nan nan -11.722469 7.009893 -43.431706 3.954785 -4.728117 45.750521 0.094000 5.702926 -23.416233 nan nan nan 2.515651 -13.034068 5.915866 9.032370 -7.705157 5.770504 1.427557 -5.931593 -1.541954 -0.450882 6.454489 21.195417 -7.729319 2.267622 8.971784 -0.995503 0.274866 -1.148688 -56.870885 -26.325568 8.023832 147.134553 -44.535318 -114.200098 -11.928086 -27.255037 -21.845675 5.394427 6.776194 -8.824011 60.893503 29.032346 20.266545 -155.184602 52.628947 -136.212780 11.191107 23.297249 -31.502757 
6.792056 135.187210 85.688866 167.334964 -4.604370 98.892937 10.155560 6.108744 13.264767 -3.003549 4.266885 17.327125 -1.314812 11.690026 -22.265472 nan nan nan -11.883064 6.487974 -42.830883 3.665036 -5.131350 45.751020 -0.205719 5.595979 -23.600226 nan nan nan 2.254560 -12.389050 5.338706 8.992582 -7.701857 7.388696 1.570886 -6.010154 -2.208416 -0.032773 5.921545 21.057756 -7.720020 1.762189 9.149905 -0.787219 -0.592443 -1.015626 -56.874419 -27.100425 8.132645 146.361475 -43.903155 -114.040383 -13.664510 -26.742768 -20.018134 4.871929 7.290461 -8.739619 60.523224 29.548928 19.837782 -154.047534 52.264921 -135.323545 11.415265 23.114813 -30.387955 
6.853333 134.989838 85.757225 168.872267 -4.807729 98.568024 10.467831 6.245244 12.901544 -2.777045 4.832110 17.291851 -1.375459 11.589769 -22.092812 nan nan nan -12.024508 5.879737 -42.310712 3.396855 -5.536482 45.713410 -0.222512 5.452242 -23.780639 nan nan nan 2.246991 -12.070970 5.326314 8.880969 -7.637059 7.397676 1.526485 -6.016138 -2.292291 0.283235 5.505210 21.239074 -7.678059 1.423870 9.199776 -0.338464 -1.062117 -0.976766 -57.555365 -27.553780 8.479622 146.191065 -43.996301 -113.773322 -13.232839 -26.679986 -19.807471 4.626734 7.843996 -8.530968 59.990402 29.920145 19.260041 -153.309963 52.049559 -134.619141 11.299111 22.807231 -29.384557 
6.923413 134.793793 85.825615 170.425913 -5.009789 98.237864 10.763786 6.370755 12.526491 -2.653430 5.297344 17.242957 -1.392848 11.576036 -21.978852 nan nan nan -12.172806 5.302451 -41.740075 3.115361 -5.960131 45.614340 -0.161943 5.221362 -24.020007 nan nan nan 2.250309 -11.842223 5.318259 8.745442 -7.600626 7.391123 1.474918 -5.966478 -2.328965 0.383623 5.158393 21.421256 -7.474747 1.245423 9.086110 -0.169878 -1.393271 -1.048486 -57.980715 -27.804885 8.890564 145.784774 -44.099847 -113.553244 -12.671257 -26.336986 -19.616151 4.445357 8.275877 -8.551316 59.391956 30.219222 18.788998 -152.659100 51.868404 -134.089074 11.376924 22.411218 -28.566963 
6.990360 134.611801 85.927750 171.945638 -5.202173 97.921773 11.071421 6.560277 12.140867 -2.589429 5.664225 17.214756 -1.447859 11.534975 -21.917916 nan nan nan -12.280834 4.704984 -41.099188 2.834374 -6.324714 45.402214 -0.040215 4.900804 -24.148020 nan nan nan 2.310057 -11.724700 5.350763 8.584669 -7.541794 7.018006 1.456764 -5.828811 -2.063083 0.308957 4.974282 21.882096 -7.199999 0.932035 8.733187 -0.254623 -1.724754 -1.199815 -57.948789 -28.527887 8.952447 146.064787 -44.505820 -113.530491 -13.712850 -26.090817 -18.241887 3.942076 8.570890 -8.454453 59.110884 30.583116 18.104475 -152.283854 51.757655 -133.586385 12.002463 22.235928 -28.149513 
7.042284 134.423035 86.034599 173.455038 -5.392438 97.598410 11.296668 6.734313 11.728447 -2.437677 6.028697 17.226256 -1.444767 11.548667 -21.877826 nan nan nan -12.414687 4.124121 -40.419635 2.563257 -6.697555 45.123257 0.069850 4.563795 -24.195856 nan nan nan 2.316681 -11.562147 5.533490 8.440247 -7.483138 6.612521 1.515222 -5.673184 -1.943106 0.217535 4.641438 22.294637 -6.926618 0.646198 8.512045 -0.299033 -2.194027 -1.177235 -58.186026 -28.827572 9.028463 145.677038 -44.658159 -113.071981 -13.494566 -26.718675 -19.104138 3.313369 8.841404 -8.400886 58.872095 30.758103 17.391402 -151.978347 51.683207 -132.887497 11.909396 22.264299 -27.803996 
7.091643 134.233063 86.126740 174.963887 -5.591461 97.298479 11.487680 6.927084 11.250025 -2.315232 6.389322 17.254983 -1.437385 11.571804 -21.827661 nan nan nan -12.535193 3.527250 -39.795794 2.299488 -7.005966 44.883665 0.175842 4.242866 -24.271596 nan nan nan 2.225927 -11.303664 5.481008 8.337770 -7.497944 6.623728 1.561938 -5.536251 -2.013962 0.158946 4.089692 22.597309 -6.632688 0.350985 8.515548 -0.303992 -2.733616 -1.075685 -58.430761 -29.276728 9.214750 145.731605 -44.780384 -112.851974 -13.055174 -26.052506 -18.517254 2.940799 8.991169 -8.474487 58.466392 31.021772 16.768693 -151.504078 51.722721 -132.183883 11.724139 22.018452 -27.090367 
